<?xml version="1.0" encoding="utf-8"?>
<!-- Generator: Adobe Illustrator 16.0.4, SVG Export Plug-In . SVG Version: 6.00 Build 0)  -->
<!DOCTYPE svg PUBLIC "-//W3C//DTD SVG 1.1//EN" "http://www.w3.org/Graphics/SVG/1.1/DTD/svg11.dtd">
<svg version="1.1" xmlns="http://www.w3.org/2000/svg" xmlns:xlink="http://www.w3.org/1999/xlink" x="0px" y="0px"
	 width="1602.934px" height="318.866px" viewBox="0 0 1602.934 318.866" enable-background="new 0 0 1602.934 318.866"
	 xml:space="preserve">
<g id="Layer_2">
	<g>
		<g>
			<defs>
				<rect id="SVGID_1_" width="320.685" height="318.866"/>
			</defs>
			<clipPath id="SVGID_2_">
				<use xlink:href="#SVGID_1_"  overflow="visible"/>
			</clipPath>
			<g clip-path="url(#SVGID_2_)">
				<defs>
					<path id="SVGID_3_" d="M237.135,158.079c-0.004,5.128,0,116.554,0,116.554H83.55c0,0,0.005-111.426,0-116.554
						c-0.009-10.624-8.146-18.771-18.355-18.771c-10.21,0-18.496,8.617-18.496,19.079c-0.001,29.062-0.009,116.246-0.009,116.246
						H31.639c-6.681,0-7.065,3.686-7.065,6.911v15.205H6.144C2.38,296.75,0,299.207,0,303.124v15.742h320.685v-15.742
						c0-3.917-2.38-6.374-6.144-6.374h-18.43v-15.205c0-3.226-0.384-6.911-7.065-6.911h-15.051c0,0-0.008-87.185-0.01-116.246
						c0-10.462-8.285-19.079-18.496-19.079C245.28,139.308,237.144,147.456,237.135,158.079"/>
				</defs>
				<clipPath id="SVGID_4_">
					<use xlink:href="#SVGID_3_"  overflow="visible"/>
				</clipPath>
				<g clip-path="url(#SVGID_4_)">
					<defs>
						<rect id="SVGID_5_" x="-39.662" y="-212.703" width="375.845" height="563.768"/>
					</defs>
					<clipPath id="SVGID_6_">
						<use xlink:href="#SVGID_5_"  overflow="visible"/>
					</clipPath>
					<g transform="matrix(1 0 0 1 0 -1.525879e-05)" clip-path="url(#SVGID_6_)">
						
							<image overflow="visible" width="3456" height="5184" xlink:href="FB73B9F50DE0E907.jpg"  transform="matrix(0.1088 0 0 0.1088 -39.6616 -212.7026)">
						</image>
					</g>
				</g>
			</g>
			<g clip-path="url(#SVGID_2_)">
				<defs>
					<path id="SVGID_7_" d="M99.138,153.681c0,0-0.024,101.75-0.024,103.439c0,1.971,2.278,4.201,4.633,3.126
						c2.293-1.047,24.297-11.114,25.726-11.749c1.382-0.614,1.843-2.265,1.843-3.199c0-0.921-0.052-71.52-0.052-72.441
						c0-0.922-0.358-1.74-1.279-2.508c-0.922-0.768-25.152-19.043-26.109-19.766c-0.353-0.266-0.783-0.388-1.239-0.388
						C101.036,150.196,99.119,151.689,99.138,153.681"/>
				</defs>
				<clipPath id="SVGID_8_">
					<use xlink:href="#SVGID_7_"  overflow="visible"/>
				</clipPath>
				<g clip-path="url(#SVGID_8_)">
					<defs>
						<rect id="SVGID_9_" x="-39.661" y="-212.703" width="375.844" height="563.768"/>
					</defs>
					<clipPath id="SVGID_10_">
						<use xlink:href="#SVGID_9_"  overflow="visible"/>
					</clipPath>
					<g transform="matrix(1 0 0 1 0 -1.525879e-05)" clip-path="url(#SVGID_10_)">
						
							<image overflow="visible" width="3456" height="5184" xlink:href="FB73B9F50DE0E905.jpg"  transform="matrix(0.1088 0 0 0.1088 -39.6611 -212.7026)">
						</image>
					</g>
				</g>
			</g>
			<g clip-path="url(#SVGID_2_)">
				<defs>
					<path id="SVGID_11_" d="M216.861,150.583c-0.958,0.722-25.188,18.998-26.109,19.766c-0.922,0.768-1.28,1.586-1.28,2.508
						c0,0.921-0.052,71.52-0.052,72.441c0,0.935,0.461,2.585,1.843,3.199c1.428,0.635,23.432,10.702,25.725,11.749
						c2.355,1.075,4.634-1.155,4.634-3.126c0-1.689-0.025-103.439-0.025-103.439c0.019-1.992-1.898-3.485-3.498-3.485
						C217.643,150.196,217.213,150.317,216.861,150.583"/>
				</defs>
				<clipPath id="SVGID_12_">
					<use xlink:href="#SVGID_11_"  overflow="visible"/>
				</clipPath>
				<g clip-path="url(#SVGID_12_)">
					<defs>
						<rect id="SVGID_13_" x="-39.662" y="-212.703" width="375.845" height="563.768"/>
					</defs>
					<clipPath id="SVGID_14_">
						<use xlink:href="#SVGID_13_"  overflow="visible"/>
					</clipPath>
					<g transform="matrix(1 0 0 1 0 -1.525879e-05)" clip-path="url(#SVGID_14_)">
						
							<image overflow="visible" width="3456" height="5184" xlink:href="FB73B9F50DE0E90B.jpg"  transform="matrix(0.1088 0 0 0.1088 -39.6616 -212.7026)">
						</image>
					</g>
				</g>
			</g>
			<g clip-path="url(#SVGID_2_)">
				<defs>
					<path id="SVGID_15_" d="M160.419,35.501l74.258,52.373H86.007C86.007,87.874,158.883,35.501,160.419,35.501 M160.763,0
						c-4.45,0.016-9.207,1.966-14.959,6.013C134.746,13.795,26.621,92.072,26.621,92.072c-14.478,14.478-1.238,28.362,10.649,28.362
						c11.468,0,240.725,0.344,248.603,0c11.043-0.482,18.84-18.823,7.372-27.53c-11.15-8.465-111.81-81.592-120.411-88.146
						c-4.091-3.117-7.903-4.745-11.967-4.759H160.763z"/>
				</defs>
				<clipPath id="SVGID_16_">
					<use xlink:href="#SVGID_15_"  overflow="visible"/>
				</clipPath>
				<g clip-path="url(#SVGID_16_)">
					<defs>
						<rect id="SVGID_17_" x="-39.662" y="-212.703" width="375.845" height="563.768"/>
					</defs>
					<clipPath id="SVGID_18_">
						<use xlink:href="#SVGID_17_"  overflow="visible"/>
					</clipPath>
					<g transform="matrix(1 0 0 1 0 -1.525879e-05)" clip-path="url(#SVGID_18_)">
						
							<image overflow="visible" width="3456" height="5184" xlink:href="FB73B9F50DE0E90D.jpg"  transform="matrix(0.1088 0 0 0.1088 -39.6616 -212.7026)">
						</image>
					</g>
				</g>
			</g>
		</g>
	</g>
</g>
<g id="Logo">
	<text transform="matrix(1 0 0 1 385.2827 254.2241)" font-family="'Arial-BoldMT'" font-size="150">SeamlessAccess</text>
</g>
</svg>
